# xmcd
#
# Track frame offsets: 
#        150
#        11393
#        28763
#        39780
#        57459
#        67808
#        87185
#        101127
#        117975
#
# Disc length: 1761 seconds
#
# Revision: 0
# Processed by: cddbd v1.5.2PL0 Copyright (c) Steve Scherf et al.
# Submitted via: ExactAudioCopy v0.99pb3
#
DISCID=6906df09
DTITLE=Ray St. Germain - Life Ain't Hard
DYEAR=2008
DGENRE=Country
TTITLE0=Mother Trucker's Son
TTITLE1=Let It Rain
TTITLE2=Life Ain't Hard
TTITLE3=We All Make Mistakes Sometimes
TTITLE4='Cause I'm A Travellin' Man
TTITLE5=Daddy
TTITLE6=Too Blue for The Blues
TTITLE7=Blue Melody
TTITLE8=Where's My Lucy
EXTD=
EXTT0=
EXTT1=
EXTT2=
EXTT3=
EXTT4=
EXTT5=
EXTT6=
EXTT7=
EXTT8=
PLAYORDER=
